Format                           : MPEG-4
Format profile                   : Base Media
Codec ID                         : isom
File size                        : 41.9 MiB
Duration                         : 4mn 13s
Overall bit rate                 : 1 385 Kbps
Movie name                       : Jay Sean feat. Nicki Minaj - 2012 (It Ain't The End) x264 Web - p0kaman.mp4
Performer                        : Avidemux
Screenplay by                    : Avidemux
Encoded date                     : UTC 1970-01-01 00:00:00
Tagged date                      : UTC 1970-01-01 00:00:00
Writing application              : Lavf51.12.1

Video
ID                               : 1
Format                           : AVC
Format/Info                      : Advanced Video Codec
Format profile                   : High@L2.1
Format settings, CABAC           : Yes
Format settings, ReFrames        : 2 frames
Codec ID                         : avc1
Codec ID/Info                    : Advanced Video Coding
Duration                         : 4mn 13s
Bit rate mode                    : Variable
Bit rate                         : 1 191 Kbps
Width                            : 576 pixels
Height                           : 288 pixels
Display aspect ratio             : 2.000
Frame rate mode                  : Constant
Frame rate                       : 25.000 fps
Resolution                       : 24 bits
Colorimetry                      : 4:2:0
Scan type                        : Progressive
Bits/(Pixel*Frame)               : 0.287
Stream size                      : 36.0 MiB (86%)
Writing library                  : x264 core 66 r1101M b69548a
Encoding settings                : cabac=1 / ref=1 / deblock=1:0:0 / analyse=0x3:0x113 / me=hex / subme=6 / psy_rd=1.0:0.0 / mixed_ref=0 / me_range=16 / chroma_me=1 / trellis=0 / 8x8dct=1 / cqm=0 / deadzone=21,11 / chroma_qp_offset=-2 / threads=3 / nr=0 / decimate=1 / mbaff=0 / bframes=2 / b_pyramid=0 / b_adapt=1 / b_bias=0 / direct=1 / wpredb=1 / keyint=250 / keyint_min=25 / scenecut=40(pre) / rc=2pass / bitrate=1191 / ratetol=1.0 / qcomp=0.60 / qpmin=10 / qpmax=51 / qpstep=4 / cplxblur=20.0 / qblur=0.5 / ip_ratio=1.40 / pb_ratio=1.30 / aq=1:1.00
Encoded date                     : UTC 1970-01-01 00:00:00
Tagged date                      : UTC 1970-01-01 00:00:00

Audio
ID                               : 2
Format                           : AAC
Format/Info                      : Advanced Audio Codec
Format version                   : Version 4
Format profile                   : Main
Codec ID                         : 40
Duration                         : 4mn 12s
Bit rate mode                    : Variable
Bit rate                         : 192 Kbps
Channel(s)                       : 2 channels
Channel positions                : L R
Sampling rate                    : 48.0 KHz
Resolution                       : 16 bits
Stream size                      : 5.69 MiB (14%)
Encoded date                     : UTC 1970-01-01 00:00:00
Tagged date                      : UTC 1970-01-01 00:00:00


Screenshots -

[IMG]http://img808.imageshack.us/img808/2728/ss3hx.jpg[/IMG]

[IMG]http://img687.imageshack.us/img687/9788/ss4i.jpg[/IMG]

[IMG]http://img138.imageshack.us/img138/4236/ss5om.jpg[/IMG]

[IMG]http://img121.imageshack.us/img121/8294/ss6hy.jpg[/IMG]

[IMG]http://img827.imageshack.us/img827/3563/ss1jt.jpg[/IMG]

[IMG]http://img811.imageshack.us/img811/8914/ss2bu.jpg[/IMG]
